<?xml version="1.0" encoding="UTF-8"?>
<svg id="Layer_1" data-name="Layer 1" xmlns="http://www.w3.org/2000/svg" xmlns:xlink="http://www.w3.org/1999/xlink" viewBox="0 0 1024 1024">
  <defs>
    <style>
      .cls-1 {
        fill: none;
      }
      .cls-2 {
        clip-path: url(#clippath-1);
      }
      .cls-3 {
        clip-path: url(#clippath-2);
      }
      .cls-4 {
        fill: transparent;
      }
      .cls-5 {
        fill: #5764f2;
      }
    </style>
    <clipPath id="clippath-1">
      <rect class="cls-1" x="0" y="0" width="1024" height="1024"/>
    </clipPath>
    <clipPath id="clippath-2">
      <rect class="cls-1" x="-1044" y="0" width="1024" height="1024"/>
    </clipPath>
  </defs>
  <g>
    <rect class="cls-4" x="0" y="0" width="1024" height="1024"/>
    <g class="cls-2">
      <g>
        <path class="cls-5" d="M557.76,946.87c-78.46,48.89-171.14,77.13-270.41,77.13H0v-77.13h557.76Z"/>
        <path class="cls-5" d="M678.13,842.87c-21.31,25.12-44.95,48.13-70.63,68.75H0v-68.75h678.13Z"/>
        <path class="cls-5" d="M746.93,737.97c-10.66,21.63-22.77,42.39-36.28,62.14H0v-62.14h746.93Z"/>
        <path class="cls-5" d="M784.74,633.97c-4.63,18.93-10.31,37.47-17,55.53H0v-55.53h784.74Z"/>
        <path class="cls-5" d="M799,531.71c-.61,15.76-1.9,31.36-3.91,46.72H0v-46.72h799Z"/>
        <path class="cls-5" d="M797.41,467.09H0v-39.96h792.39c2.17,13.17,3.86,26.47,5.02,39.96Z"/>
        <path class="cls-5" d="M775.28,356.32H0v-32.76h763.59c4.26,10.76,8.14,21.68,11.69,32.76Z"/>
        <path class="cls-5" d="M725.3,246.58H0v-22.95h710.49c5.13,7.51,10.07,15.15,14.81,22.95Z"/>
        <path class="cls-5" d="M626.99,128.83H0v-16.55h607.37c6.66,5.37,13.22,10.87,19.62,16.55Z"/>
        <path class="cls-5" d="M403.09,13.14H0V0h287.35C327.15,0,365.89,4.55,403.09,13.14Z"/>
        <g>
          <path class="cls-5" d="M1362.53,77.13C1284.08,28.24,1191.4,0,1092.13,0H225v77.13h1137.53Z"/>
          <path class="cls-5" d="M1482.9,181.13c-21.31-25.12-44.95-48.13-70.63-68.75H225v68.75h1257.9Z"/>
          <path class="cls-5" d="M1551.71,286.03c-10.66-21.63-22.77-42.39-36.28-62.14H225v62.14h1326.7Z"/>
          <path class="cls-5" d="M1589.52,390.03c-4.63-18.93-10.31-37.47-17-55.53H225v55.53h1364.52Z"/>
          <path class="cls-5" d="M1603.77,492.29c-.61-15.76-1.9-31.36-3.91-46.72H225v46.72h1378.77Z"/>
          <path class="cls-5" d="M1602.19,556.91H225v39.96h1372.16c2.17-13.17,3.86-26.47,5.02-39.96Z"/>
          <path class="cls-5" d="M1580.05,667.68H225v32.76h1343.36c4.26-10.76,8.14-21.68,11.69-32.76Z"/>
          <path class="cls-5" d="M1530.08,777.42H225v22.95h1290.27c5.13-7.51,10.07-15.15,14.81-22.95Z"/>
          <path class="cls-5" d="M1431.76,895.17H225v16.55h1187.14c6.66-5.37,13.22-10.87,19.62-16.55Z"/>
          <path class="cls-5" d="M1207.87,1010.86H225v13.14h867.13c39.8,0,78.54-4.55,115.74-13.14Z"/>
        </g>
      </g>
    </g>
  </g>
  <g class="cls-3">
    <g>
      <path class="cls-4" d="M318.53,77.13C240.08,28.24,147.4,0,48.13,0h-867.13v77.13H318.53Z"/>
      <path class="cls-4" d="M438.9,181.13c-21.31-25.12-44.95-48.13-70.63-68.75H-819v68.75H438.9Z"/>
      <path class="cls-4" d="M507.71,286.03c-10.66-21.63-22.77-42.39-36.28-62.14H-819v62.14H507.71Z"/>
      <path class="cls-4" d="M545.52,390.03c-4.63-18.93-10.31-37.47-17-55.53H-819v55.53H545.52Z"/>
      <path class="cls-4" d="M559.77,492.29c-.61-15.76-1.9-31.36-3.91-46.72H-819v46.72H559.77Z"/>
      <path class="cls-4" d="M558.19,556.91H-819v39.96H553.16c2.17-13.17,3.86-26.47,5.02-39.96Z"/>
      <path class="cls-4" d="M536.05,667.68H-819v32.76H524.37c4.26-10.76,8.14-21.68,11.69-32.76Z"/>
      <path class="cls-4" d="M486.08,777.42H-819v22.95H471.27c5.13-7.51,10.07-15.15,14.81-22.95Z"/>
      <path class="cls-4" d="M387.76,895.17H-819v16.55H368.14c6.66-5.37,13.22-10.87,19.62-16.55Z"/>
      <path class="cls-4" d="M163.87,1010.86h-982.87v13.14H48.13c39.8,0,78.54-4.55,115.74-13.14Z"/>
    </g>
  </g>
</svg>